<svg width="40" height="40" viewBox="0 0 40 40" fill="none" xmlns="http://www.w3.org/2000/svg">
<path d="M28.5633 26.9545C27.0002 24.0415 23.4571 23.39 20.1726 23.0195C17.3204 22.5403 14.7126 21.4057 12.6791 19.7593C10.6456 18.1129 9.2776 16.0285 8.74818 13.7697C8.21877 11.5109 8.55168 9.17926 9.70482 7.06951C10.9239 4.83908 19.9661 2.27108 7.409 1.96444C11.9421 0.392996 20.3829 -0.181928 23.4522 0.0491333C26.3683 0.0808434 29.207 0.792895 31.6093 2.09524C34.0116 3.39759 37.7336 6.14222 39.922 6.64049L29.7096 8.71022C28.8238 8.17362 28.2675 7.80801 27.1473 7.20072C26.0271 6.59343 24.7034 6.2614 23.3436 6.24661C21.9838 6.23183 20.649 6.53495 19.5079 7.11765C18.3669 7.70035 17.4708 8.53646 16.9331 9.52024C16.3954 10.504 16.2402 11.5913 16.487 12.6446C16.7339 13.6978 17.3718 14.6698 18.32 15.4375C19.2683 16.2053 20.4843 16.7343 21.8143 16.9578C23.1443 17.1812 25.437 17.2958 26.6875 17.2958L28.5633 26.9545Z" fill="white"/>
<path d="M24.2112 17.2671C27.3153 17.2576 30.3163 17.3614 32.9044 18.6296C35.4926 19.8977 37.5144 21.7053 38.7143 23.8238C39.9142 25.9422 40.2383 28.2763 39.6455 30.5309C39.0527 32.7856 37.5696 34.8594 35.384 36.4903C33.1983 38.1212 30.4081 39.2359 27.3662 39.6933C24.3244 40.1507 21.1674 39.9304 18.2947 39.0602C15.422 38.1901 12.9624 36.7091 11.2271 34.8045C9.49173 32.9 9.54527 29.3469 0.0623081 28.3349L18.2988 28.2193C15.3809 28.7559 17.3628 30.4517 18.1719 31.3397C18.9811 32.2278 20.128 32.9184 21.4676 33.3242C22.8072 33.73 24.2793 33.8327 25.6977 33.6194C27.1161 33.4061 28.4172 32.8863 29.4364 32.1258C30.4556 31.3653 31.1471 30.3983 31.4235 29.3469C31.7 28.2956 31.5489 27.2072 30.9894 26.2194C30.4298 25.2315 29.205 24.4171 27.9981 23.8257C26.6672 23.826 22.9188 23.1274 21.4713 23.1319L24.2112 17.2671Z" fill="white"/>
<path d="M33.0964 5.10737C32.4711 5.10737 31.9501 5.10737 31.5332 4.91573C31.1164 4.72409 30.8559 4.37913 30.0743 4.03418C30.7517 4.07251 31.2206 4.07251 31.7937 4.18749C32.3669 4.30248 32.9921 4.80074 33.0964 5.10737Z" fill="#FF0000"/>
</svg>
