<svg width="35" height="25" viewBox="0 0 35 25" fill="none" xmlns="http://www.w3.org/2000/svg">
<path d="M33.5533 25C34.6991 22.3025 35.1761 19.358 34.942 16.4271C34.708 13.4963 33.7702 10.6697 32.2117 8.19764C30.6532 5.72559 28.5221 3.68443 26.0071 2.25496C23.4922 0.82549 20.671 0.0518318 17.7935 0.00251534C14.916 -0.0468012 12.071 0.629747 9.51056 1.97223C6.95009 3.31472 4.75317 5.2817 3.11439 7.69895C1.47561 10.1162 0.445564 12.9091 0.115488 15.8303C-0.214587 18.7514 0.165496 21.7107 1.22207 24.4459L5.18941 22.8459C4.39034 20.7773 4.1029 18.5393 4.35252 16.3301C4.60215 14.1209 5.38115 12.0087 6.62052 10.1806C7.85988 8.35248 9.52136 6.86491 11.4578 5.84962C13.3942 4.83433 15.5458 4.32267 17.722 4.35997C19.8981 4.39727 22.0317 4.98237 23.9337 6.06344C25.8357 7.14451 27.4474 8.68819 28.6261 10.5577C29.8048 12.4273 30.514 14.565 30.691 16.7815C30.868 18.998 30.5072 21.2249 29.6407 23.2649L33.5533 25Z" fill="#D9D9D9"/>
<path d="M9.2193 12.7512C9.73151 12.2937 10.488 12.2565 11.0415 12.6617L19.3213 18.7222C20.4402 19.5412 20.5196 21.201 19.4841 22.1259L18.9567 22.5971C18.0771 23.3827 16.7387 23.3101 15.947 22.4336L9.10769 14.8628C8.55528 14.2513 8.6056 13.2994 9.2193 12.7512Z" fill="#D9D9D9"/>
</svg>
